<svg width="431" height="112" viewBox="0 0 431 112" fill="none" xmlns="http://www.w3.org/2000/svg">
<path d="M310.206 4.50636L310.362 8.50332L310.284 8.50636H310.206V4.50636ZM403.828 110.646C402.266 112.208 399.734 112.208 398.172 110.646L372.716 85.1904C371.154 83.6283 371.154 81.0956 372.716 79.5336C374.278 77.9715 376.81 77.9715 378.373 79.5336L401 102.161L423.627 79.5336C425.19 77.9715 427.722 77.9715 429.284 79.5336C430.846 81.0957 430.846 83.6283 429.284 85.1904L403.828 110.646ZM310.206 4.50636C310.05 0.509401 310.053 0.509299 310.056 0.509185C310.057 0.50913 310.061 0.509005 310.064 0.508897C310.069 0.508683 310.077 0.508424 310.085 0.508129C310.102 0.507537 310.125 0.506796 310.153 0.505962C310.21 0.504292 310.287 0.502247 310.386 0.500265C310.584 0.496303 310.866 0.492596 311.227 0.492677C311.947 0.492838 312.982 0.508143 314.287 0.566942C316.896 0.68447 320.591 0.976182 325.014 1.67108C333.841 3.0582 345.664 6.06772 357.529 12.5865C369.424 19.1217 381.347 29.1804 390.275 44.5919C399.198 59.9968 405 80.5279 405 107.818L397 107.818C397 81.6813 391.452 62.5852 383.352 48.6018C375.256 34.6249 364.481 25.5341 353.677 19.598C342.843 13.6455 331.968 10.8621 323.772 9.5741C319.682 8.93143 316.284 8.66503 313.927 8.55883C312.75 8.50577 311.834 8.49281 311.225 8.49268C310.92 8.49261 310.692 8.49574 310.547 8.49866C310.474 8.50012 310.421 8.50152 310.39 8.50244C310.375 8.5029 310.365 8.50324 310.36 8.50341C310.358 8.50349 310.357 8.50353 310.357 8.50352C310.357 8.50351 310.358 8.50346 310.358 8.50346C310.36 8.5034 310.362 8.50332 310.206 4.50636ZM310.206 8.50636H1.85966e-05V0.506362H310.206V8.50636Z" fill="black"/>
</svg>
