<svg width="1920" height="296" viewBox="0 0 1920 296" fill="none" xmlns="http://www.w3.org/2000/svg">
<path d="M861.223 0.968964L479.789 295M565.407 0.968964L0.00208121 110.072M466.799 0.968964L0.00208121 73.0365M368.201 0.968964L0.000297366 48.3422M664.017 0.968964L0.000594644 171.786M269.593 0.968964L0.000297366 30.7008M72.3759 0.968964L0 7.17809M170.984 0.968964L0 17.4685M1650.07 0.968964L1920 30.7546M959.831 0.968964L959.171 295M1748.68 0.968964L1920 17.5075M1847.28 0.968964L1920 7.20904M1551.46 0.968964L1920 48.4144M1452.86 0.968964L1920 73.1362M1255.65 0.968964L1920 172.071M1354.26 0.968964L1920 110.233M1058.44 0.968964L1438.56 295M762.615 0.968964L0.409703 295M1157.04 0.968964L1917.94 295M1920 41.0961H0.00208121M1920 14.1866H0.00208121M1920 19.6731H0.00208121M1920 25.8784H0.00208121M1920 4.91879H0.00208121M1920 9.29969H0.00208121M1920 217.163H0.00208121M1920 50.5615H0.00208121M1920 32.9557H0.00208121M1920 0.968964H0.00208121M1920 61.7035H0.00208121M1920 75.0146H0.00208121M1920 170.634H0.00208121M1920 91.1946H0.00208121M1920 111.281H0.00208121M1920 136.884H0.00208121" stroke="url(#paint0_linear_23_8)" stroke-linecap="round" stroke-linejoin="round"/>
<defs>
<linearGradient id="paint0_linear_23_8" x1="960" y1="1" x2="960" y2="295" gradientUnits="userSpaceOnUse">
<stop/>
<stop offset="1" stop-opacity="0"/>
</linearGradient>
</defs>
</svg>
